# xmcd CD database file
# Copyright (C) 1996 Ti Kan
#
# Track frame offsets:
#	150
#	14560
#	34547
#	48945
#	78905
#	96392
#	109332
#	129442
#	139685
#	155005
#	173045
#	191117
#	207632
#	224712
#
# Disc length: 3148 seconds
#
# Revision: 1
# Processed by: cddbd v1.4b41PL1 Copyright (c) Steve Scherf et al.
# Submitted via: EasyCD 2.21 - (C) 1996 Greg Leichner
#
DISCID=ce0c4a0e
DTITLE=Alain Morisod et Sweer People - Le sentier de neige
DYEAR=1900
DGENRE=
TTITLE0=C'est la nuit de Nokl (Glory Alleluia)
TTITLE1=Nokl sans toi
TTITLE2=White Christmas
TTITLE3=Gaitan Labonti (l'histoire du soldat)
TTITLE4=Silent night
TTITLE5=Le sentier de neige
TTITLE6=Ave Maria
TTITLE7=Blue Christmas
TTITLE8=Les enfants oubliis
TTITLE9=Petit papa Nokl
TTITLE10=C'est Nokl
TTITLE11=Adeste fideles
TTITLE12=American - Trilogy
TTITLE13=Les anges dans nos campagnes
EXTD=
EXTT0=
EXTT1=
EXTT2=
EXTT3=
EXTT4=
EXTT5=
EXTT6=
EXTT7=
EXTT8=
EXTT9=
EXTT10=
EXTT11=
EXTT12=
EXTT13=
PLAYORDER=
